ffmpeg started on 2016-12-05 at 02:27:05
Report written to "Output/x264/results/ffmpeg/sintelveryfast5000k.log"
Command line:
Tools/ffmpeg/ffmpeg -benchmark -y -i Input/y4m/sintel.y4m -c:v libx264 -preset veryfast -b:v 5000k -an Output/x264/encoded/sintelveryfast5000k.mkv
ffmpeg version N-82227-gdb23fde Copyright (c) 2000-2016 the FFmpeg developers
  built with gcc 5.4.0 (Ubuntu 5.4.0-6ubuntu1~16.04.2) 20160609
  configuration: --prefix=/home/jaroslav/ffmpeg_build --pkg-config-flags=--static --extra-cflags=-I/home/jaroslav/ffmpeg_build/include --extra-ldflags=-L/home/jaroslav/ffmpeg_build/lib --bindir=/home/jaroslav/bin --enable-gpl --enable-libass --enable-libfdk-aac --enable-libfreetype --enable-libmp3lame --enable-libopus --enable-libtheora --enable-libvorbis --enable-libvpx --enable-libx264 --enable-libx265 --enable-nvenc --enable-libmfx --enable-libxvid --enable-libgsm --enable-libopencore-amrnb --enable-version3 --enable-nonfree
  libavutil      55. 35.100 / 55. 35.100
  libavcodec     57. 66.101 / 57. 66.101
  libavformat    57. 57.100 / 57. 57.100
  libavdevice    57.  2.100 / 57.  2.100
  libavfilter     6. 66.100 /  6. 66.100
  libswscale      4.  3.100 /  4.  3.100
  libswresample   2.  4.100 /  2.  4.100
  libpostproc    54.  2.100 / 54.  2.100
Input #0, yuv4mpegpipe, from 'Input/y4m/sintel.y4m':
  Duration: 00:00:20.83, start: 0.000000, bitrate: 2057307 kb/s
    Stream #0:0: Video: rawvideo (I420 / 0x30323449), yuv420p(progressive), 4096x1744, SAR 1:1 DAR 256:109, 24 fps, 24 tbr, 24 tbn, 24 tbc
[libx264 @ 0x31711c0] using SAR=1/1
[libx264 @ 0x31711c0] using cpu capabilities: MMX2 SSE2Fast SSSE3 SSE4.2 AVX FMA3 AVX2 LZCNT BMI2
[libx264 @ 0x31711c0] profile High, level 5.1
[libx264 @ 0x31711c0] 264 - core 148 - H.264/MPEG-4 AVC codec - Copyleft 2003-2016 - http://www.videolan.org/x264.html - options: cabac=1 ref=1 deblock=1:0:0 analyse=0x3:0x113 me=hex subme=2 psy=1 psy_rd=1.00:0.00 mixed_ref=0 me_range=16 chroma_me=1 trellis=0 8x8dct=1 cqm=0 deadzone=21,11 fast_pskip=1 chroma_qp_offset=0 threads=6 lookahead_threads=2 sliced_threads=0 nr=0 decimate=1 interlaced=0 bluray_compat=0 constrained_intra=0 bframes=3 b_pyramid=2 b_adapt=1 b_bias=0 direct=1 weightb=1 open_gop=0 weightp=1 keyint=250 keyint_min=24 scenecut=40 intra_refresh=0 rc_lookahead=10 rc=abr mbtree=1 bitrate=5000 ratetol=1.0 qcomp=0.60 qpmin=0 qpmax=69 qpstep=4 ip_ratio=1.40 aq=1:1.00
Output #0, matroska, to 'Output/x264/encoded/sintelveryfast5000k.mkv':
  Metadata:
    encoder         : Lavf57.57.100
    Stream #0:0: Video: h264 (libx264) (H264 / 0x34363248), yuv420p, 4096x1744 [SAR 1:1 DAR 256:109], q=-1--1, 5000 kb/s, 24 fps, 1k tbn, 24 tbc
    Metadata:
      encoder         : Lavc57.66.101 libx264
    Side data:
      cpb: bitrate max/min/avg: 0/0/5000000 buffer size: 0 vbv_delay: -1
Stream mapping:
  Stream #0:0 -> #0:0 (rawvideo (native) -> h264 (libx264))
Press [q] to stop, [?] for help
frame=    9 fps=0.0 q=0.0 size=       0kB time=00:00:00.00 bitrate=N/A speed=   0x    frame=   17 fps= 15 q=0.0 size=       0kB time=00:00:00.00 bitrate=N/A speed=   0x    frame=   24 fps= 14 q=39.0 size=       1kB time=00:00:00.04 bitrate= 136.4kbits/s speed=0.0252x    frame=   32 fps= 14 q=47.0 size=       1kB time=00:00:00.37 bitrate=  15.6kbits/s speed=0.168x    frame=   39 fps= 14 q=47.0 size=       1kB time=00:00:00.66 bitrate=   8.8kbits/s speed=0.241x    frame=   48 fps= 10 q=46.0 size=       1kB time=00:00:01.04 bitrate=   5.6kbits/s speed=0.224x    frame=   49 fps=6.3 q=46.0 size=       1kB time=00:00:01.08 bitrate=   5.4kbits/s speed=0.138x    frame=   50 fps=4.8 q=45.0 size=       1kB time=00:00:01.12 bitrate=   5.2kbits/s speed=0.107x    frame=   51 fps=4.4 q=45.0 size=       1kB time=00:00:01.16 bitrate=   5.0kbits/s speed=0.101x    frame=   60 fps=4.9 q=45.0 size=       1kB time=00:00:01.54 bitrate=   3.8kbits/s speed=0.126x    frame=   67 fps=5.3 q=44.0 size=       1kB time=00:00:01.83 bitrate=   3.2kbits/s speed=0.144x    frame=   79 fps=6.0 q=44.0 size=       1kB time=00:00:02.33 bitrate=   2.5kbits/s speed=0.176x    frame=   90 fps=6.5 q=43.0 size=       1kB time=00:00:02.79 bitrate=   2.1kbits/s speed=0.202x    frame=  101 fps=7.1 q=43.0 size=       1kB time=00:00:03.25 bitrate=   1.8kbits/s speed=0.227x    frame=  112 fps=7.4 q=43.0 size=       1kB time=00:00:03.70 bitrate=   1.6kbits/s speed=0.245x    frame=  126 fps=8.0 q=43.0 size=    2787kB time=00:00:04.29 bitrate=5317.4kbits/s speed=0.274x    frame=  139 fps=8.6 q=42.0 size=    2787kB time=00:00:04.83 bitrate=4722.3kbits/s speed=0.297x    frame=  151 fps=9.0 q=42.0 size=    2787kB time=00:00:05.33 bitrate=4279.7kbits/s speed=0.318x    frame=  163 fps=9.4 q=42.0 size=    2787kB time=00:00:05.83 bitrate=3912.9kbits/s speed=0.337x    frame=  174 fps=9.8 q=42.0 size=    2787kB time=00:00:06.29 bitrate=3627.5kbits/s speed=0.354x    frame=  186 fps= 10 q=42.0 size=    4070kB time=00:00:06.79 bitrate=4908.5kbits/s speed=0.371x    frame=  198 fps= 11 q=41.0 size=    4070kB time=00:00:07.29 bitrate=4572.0kbits/s speed=0.387x    frame=  208 fps= 11 q=41.0 size=    4588kB time=00:00:07.70 bitrate=4875.3kbits/s speed=0.398x    frame=  221 fps= 11 q=41.0 size=    4588kB time=00:00:08.25 bitrate=4555.0kbits/s speed=0.415x    frame=  233 fps= 11 q=40.0 size=    4588kB time=00:00:08.75 bitrate=4294.8kbits/s speed=0.429x    frame=  246 fps= 12 q=40.0 size=    4588kB time=00:00:09.29 bitrate=4044.3kbits/s speed=0.444x    frame=  259 fps= 12 q=40.0 size=    4588kB time=00:00:09.83 bitrate=3821.8kbits/s speed=0.459x    frame=  271 fps= 12 q=39.0 size=    4588kB time=00:00:10.33 bitrate=3636.9kbits/s speed=0.471x    frame=  282 fps= 13 q=39.0 size=    4588kB time=00:00:10.79 bitrate=3482.2kbits/s speed=0.481x    frame=  289 fps= 13 q=39.0 size=    6097kB time=00:00:11.08 bitrate=4506.2kbits/s speed=0.483x    frame=  303 fps= 13 q=38.0 size=    6097kB time=00:00:11.66 bitrate=4280.7kbits/s speed=0.497x    frame=  318 fps= 13 q=38.0 size=    6097kB time=00:00:12.29 bitrate=4063.0kbits/s speed=0.512x    frame=  335 fps= 14 q=37.0 size=    6097kB time=00:00:13.00 bitrate=3841.8kbits/s speed=0.531x    frame=  353 fps= 14 q=36.0 size=    6097kB time=00:00:13.75 bitrate=3632.2kbits/s speed=0.55x    frame=  370 fps= 14 q=35.0 size=    6097kB time=00:00:14.45 bitrate=3454.4kbits/s speed=0.566x    frame=  381 fps= 15 q=35.0 size=    6097kB time=00:00:14.91 bitrate=3348.1kbits/s speed=0.573x    frame=  394 fps= 15 q=35.0 size=    7427kB time=00:00:15.45 bitrate=3935.6kbits/s speed=0.582x    frame=  401 fps= 15 q=35.0 size=    7427kB time=00:00:15.75 bitrate=3862.7kbits/s speed=0.581x    frame=  414 fps= 15 q=34.0 size=    7427kB time=00:00:16.29 bitrate=3734.2kbits/s speed=0.589x    frame=  428 fps= 15 q=35.0 size=    7427kB time=00:00:16.87 bitrate=3605.2kbits/s speed=0.599x    frame=  441 fps= 15 q=35.0 size=    8823kB time=00:00:17.41 bitrate=4149.5kbits/s speed=0.607x    frame=  455 fps= 16 q=35.0 size=    8823kB time=00:00:18.00 bitrate=4015.1kbits/s speed=0.616x    frame=  470 fps= 16 q=34.0 size=    8823kB time=00:00:18.62 bitrate=3880.4kbits/s speed=0.625x    frame=  485 fps= 16 q=34.0 size=    8823kB time=00:00:19.25 bitrate=3754.4kbits/s speed=0.635x    frame=  500 fps= 16 q=34.0 size=    8823kB time=00:00:19.87 bitrate=3636.3kbits/s speed=0.644x    frame=  500 fps= 16 q=-1.0 Lsize=   10658kB time=00:00:20.70 bitrate=4216.1kbits/s speed=0.665x    
video:10653kB audio:0kB subtitle:0kB other streams:0kB global headers:0kB muxing overhead: 0.044055%
bench: utime=66.288s
bench: maxrss=926340kB
[libx264 @ 0x31711c0] frame I:8     Avg QP:30.10  size: 82758
[libx264 @ 0x31711c0] frame P:284   Avg QP:35.27  size: 27111
[libx264 @ 0x31711c0] frame B:208   Avg QP:32.81  size: 12244
[libx264 @ 0x31711c0] consecutive B-frames: 41.2%  8.0%  6.0% 44.8%
[libx264 @ 0x31711c0] mb I  I16..4: 41.7% 55.8%  2.6%
[libx264 @ 0x31711c0] mb P  I16..4: 16.6% 17.0%  0.1%  P16..4:  8.2%  2.4%  0.5%  0.0%  0.0%    skip:55.1%
[libx264 @ 0x31711c0] mb B  I16..4:  2.2%  1.8%  0.0%  B16..8:  8.6%  1.6%  0.1%  direct: 1.1%  skip:84.6%  L0:43.6% L1:51.0% BI: 5.3%
[libx264 @ 0x31711c0] final ratefactor: 32.33
[libx264 @ 0x31711c0] 8x8 transform intra:50.4% inter:61.2%
[libx264 @ 0x31711c0] coded y,uvDC,uvAC intra: 13.4% 13.1% 0.5% inter: 1.2% 2.0% 0.0%
[libx264 @ 0x31711c0] i16 v,h,dc,p: 49% 28% 12% 10%
[libx264 @ 0x31711c0] i8 v,h,dc,ddl,ddr,vr,hd,vl,hu: 15% 21% 52%  2%  1%  2%  2%  2%  3%
[libx264 @ 0x31711c0] i4 v,h,dc,ddl,ddr,vr,hd,vl,hu: 19% 24% 13%  8%  8%  6%  9%  5%  8%
[libx264 @ 0x31711c0] i8c dc,h,v,p: 81% 10%  9%  1%
[libx264 @ 0x31711c0] Weighted P-Frames: Y:0.4% UV:0.0%
[libx264 @ 0x31711c0] kb/s:4188.79
